<svg xmlns="http://www.w3.org/2000/svg" width="916" height="1145" viewBox="0 0 916 1145">
<g>
<path d="M 483.99 640.04 C482.77,644.57 480.10,646.56 477.71,644.71 C476.85,644.05 474.72,640.67 472.99,637.21 C471.25,633.75 468.75,629.84 467.42,628.51 C466.09,627.18 464.93,625.28 464.85,624.30 C464.76,623.31 464.59,622.05 464.46,621.50 C464.34,620.95 464.18,620.01 464.12,619.41 C464.05,618.81 462.94,617.84 461.64,617.25 C459.83,616.42 459.16,615.16 458.79,611.81 C458.43,608.66 457.42,606.58 455.15,604.30 C453.42,602.57 451.99,600.33 451.97,599.33 C451.95,598.32 450.83,595.70 449.47,593.50 C448.12,591.30 447.01,588.53 447.01,587.33 C447.00,586.14 446.66,585.02 446.25,584.83 C445.84,584.65 444.83,583.32 444.00,581.87 C443.17,580.43 440.76,576.73 438.63,573.66 C436.50,570.58 434.47,566.59 434.11,564.78 C433.62,562.30 432.57,561.06 429.77,559.69 C426.58,558.12 425.84,557.06 424.30,551.87 C423.01,547.54 421.65,545.21 419.41,543.50 C415.91,540.83 414.43,537.65 413.53,530.86 C413.09,527.55 412.20,525.68 410.45,524.37 C409.10,523.35 408.00,521.81 408.00,520.93 C408.00,520.05 406.20,517.71 404.00,515.74 C401.03,513.07 400.00,511.38 400.00,509.15 C400.00,503.72 399.24,503.00 393.53,503.00 C389.58,503.00 387.37,503.62 384.60,505.50 C381.19,507.81 371.82,512.47 362.64,516.41 C357.83,518.48 356.21,517.39 356.49,512.25 C356.83,506.00 358.17,499.66 359.64,497.42 C361.38,494.78 363.69,486.55 365.10,478.00 C365.69,474.42 366.88,470.40 367.74,469.06 C368.72,467.53 369.23,464.68 369.13,461.41 C368.98,457.05 369.40,455.68 371.70,452.94 C373.58,450.71 374.35,448.78 374.15,446.84 C373.94,444.90 374.39,443.79 375.53,443.35 C377.78,442.49 386.87,444.12 401.50,448.01 C408.10,449.77 415.34,451.58 417.59,452.04 C421.65,452.87 424.63,454.01 434.77,458.61 C437.67,459.92 441.11,461.00 442.41,461.00 C445.55,461.00 449.50,464.25 448.75,466.22 C447.71,468.92 439.61,472.07 433.11,472.29 C427.26,472.49 424.98,474.01 428.50,475.36 C431.24,476.41 430.05,479.52 425.00,484.50 C419.36,490.05 418.82,492.55 422.07,497.89 C423.21,499.75 425.02,503.57 426.11,506.39 C427.19,509.20 429.25,512.47 430.68,513.65 C432.33,515.01 434.09,518.32 435.47,522.65 C436.99,527.44 438.76,530.60 441.33,533.15 C443.35,535.16 445.00,537.73 445.00,538.88 C445.00,540.02 445.90,542.43 447.00,544.23 C448.09,546.03 448.99,548.51 449.00,549.75 C449.00,551.32 449.60,552.00 450.96,552.00 C453.51,552.00 456.99,555.75 457.70,559.29 C458.01,560.82 459.02,562.48 459.95,562.97 C460.88,563.47 463.74,568.34 466.31,573.80 C470.02,581.70 471.74,584.23 474.77,586.23 C481.35,590.58 486.94,588.44 489.94,580.43 C491.02,577.54 494.18,571.89 496.95,567.87 C499.73,563.86 502.00,560.16 502.00,559.67 C502.00,559.17 503.35,557.23 505.00,555.35 C506.65,553.47 508.00,551.26 508.00,550.44 C508.00,549.62 509.02,548.56 510.28,548.08 C512.08,547.40 512.83,545.91 513.84,541.00 C514.76,536.55 515.92,534.02 517.91,532.14 C519.44,530.69 521.75,527.25 523.04,524.50 C524.33,521.75 526.54,518.36 527.94,516.97 C533.48,511.50 537.06,506.91 536.49,505.99 C536.17,505.46 537.05,503.07 538.45,500.68 C541.11,496.15 541.70,490.97 540.06,486.66 C538.94,483.72 534.08,479.00 532.16,479.00 C531.42,479.00 529.50,478.33 527.90,477.50 C526.31,476.67 523.54,475.26 521.75,474.36 C519.96,473.46 517.38,471.73 516.00,470.53 C514.62,469.32 511.64,467.81 509.37,467.16 C507.10,466.52 504.64,465.27 503.91,464.39 C502.78,463.03 502.86,462.57 504.48,461.39 C506.77,459.71 514.31,459.56 517.25,461.13 C518.99,462.07 519.64,461.93 520.93,460.33 C522.64,458.22 522.84,458.13 534.50,453.77 C543.12,450.54 550.06,448.93 556.64,448.62 C558.92,448.51 561.40,447.94 562.14,447.35 C562.89,446.76 565.65,446.00 568.27,445.65 C570.89,445.31 574.35,444.35 575.97,443.52 C579.53,441.68 583.40,441.56 584.75,443.25 C585.30,443.94 586.31,446.30 587.00,448.50 C587.68,450.70 588.64,453.28 589.12,454.24 C589.61,455.19 590.02,456.77 590.03,457.74 C590.05,458.71 590.94,461.30 592.00,463.50 C593.06,465.70 593.95,468.77 593.97,470.32 C593.98,471.88 595.13,476.52 596.52,480.65 C597.90,484.77 599.26,491.27 599.54,495.08 C599.94,500.49 600.70,503.03 603.02,506.70 C605.95,511.31 606.73,515.30 605.19,517.73 C604.27,519.17 596.24,516.50 592.90,513.65 C590.80,511.85 591.14,510.00 593.56,510.00 C595.20,510.00 595.52,507.44 594.00,506.50 C593.45,506.16 592.56,507.03 592.02,508.44 C590.62,512.13 586.66,511.85 582.96,507.79 C579.93,504.48 573.80,502.04 568.44,502.02 C564.79,502.00 559.00,506.41 559.00,509.21 C559.00,511.71 557.38,514.72 553.85,518.78 C552.28,520.59 550.99,522.62 550.98,523.28 C550.97,523.95 549.90,525.51 548.59,526.75 C547.29,527.98 545.61,531.09 544.86,533.65 C543.78,537.34 542.84,538.58 540.32,539.64 C536.33,541.31 536.10,541.70 534.41,549.76 C533.50,554.12 532.02,557.64 530.08,560.05 C528.46,562.07 526.39,566.00 525.48,568.78 C524.43,571.99 522.44,575.12 520.05,577.33 C516.98,580.17 516.16,581.76 515.62,585.84 C515.09,589.81 514.28,591.43 511.78,593.53 C510.04,595.00 507.57,596.59 506.31,597.07 C505.04,597.56 504.01,598.75 504.01,599.73 C504.02,600.70 503.04,604.54 501.83,608.25 C500.08,613.65 499.08,615.24 496.82,616.24 C494.40,617.31 494.00,618.06 494.00,621.49 C493.99,625.88 491.22,631.25 487.43,634.23 C486.12,635.26 484.57,637.88 483.99,640.04 ZM 372.68 690.23 C370.40,691.85 367.74,692.56 362.90,692.84 C353.70,693.36 353.00,692.26 353.00,677.40 C353.00,669.67 353.38,665.94 354.25,665.26 C356.38,663.59 363.13,663.02 367.92,664.11 C374.95,665.72 473.53,665.63 475.48,664.02 C476.40,663.25 478.40,663.00 480.74,663.35 C486.16,664.18 531.99,665.20 571.39,665.36 C598.33,665.47 605.89,665.42 606.82,667.88 C607.21,668.91 606.44,670.39 605.43,672.50 C604.43,674.62 603.67,677.21 603.74,678.26 C603.86,679.77 603.61,679.92 602.49,678.99 C600.90,677.67 598.63,678.60 599.60,680.17 C599.96,680.74 601.48,680.95 602.98,680.65 C605.20,680.21 605.94,680.57 606.84,682.54 C607.45,683.88 607.71,685.60 607.42,686.35 C605.72,690.79 589.28,692.35 553.00,691.54 C530.62,691.03 474.25,690.76 456.50,691.07 C454.30,691.11 439.67,691.12 424.00,691.10 C394.43,691.04 382.63,690.40 383.57,688.88 C384.78,686.93 375.75,688.04 372.68,690.23 ZM 532.36 474.91 C535.11,475.71 536.08,476.00 536.78,475.69 C537.18,475.51 537.48,475.12 537.99,474.51 C539.72,472.42 538.67,470.43 535.18,469.21 C532.88,468.41 531.72,468.51 530.14,469.61 C527.45,471.50 528.40,473.76 532.36,474.91 ZM 417.00 525.50 C418.30,528.92 420.49,528.22 420.54,524.36 C420.56,522.23 420.08,521.36 418.81,521.26 C416.36,521.08 415.81,522.37 417.00,525.50 ZM 502.37 569.52 C503.01,571.19 505.13,571.14 505.67,569.44 C505.83,568.92 505.54,567.83 505.03,567.01 C503.77,565.01 501.47,567.18 502.37,569.52 ZM 457.50 464.00 C457.50,464.83 456.45,465.65 455.16,465.83 C453.35,466.09 452.90,465.75 453.17,464.33 C453.60,462.13 457.50,461.83 457.50,464.00 ZM 408.50 480.00 C408.16,480.55 408.58,481.00 409.44,481.00 C410.30,481.00 411.00,480.55 411.00,480.00 C411.00,479.45 410.58,479.00 410.06,479.00 C409.54,479.00 408.84,479.45 408.50,480.00 Z" fill="rgba(60,131,197,1)"/>
<path d="M 352.47 696.05 C347.99,694.23 347.49,692.43 347.68,678.77 C347.82,668.88 348.23,665.29 349.45,663.43 L 351.05 661.00 L 412.27 660.87 C616.74,660.45 610.02,660.41 611.02,662.00 C612.47,664.29 612.27,694.33 610.80,695.80 C609.88,696.72 579.99,696.99 482.05,696.94 C411.90,696.90 353.58,696.50 352.47,696.05 ZM 372.68 690.23 C375.75,688.04 384.78,686.93 383.57,688.88 C382.63,690.40 394.43,691.04 424.00,691.10 C439.67,691.12 454.30,691.11 456.50,691.07 C474.25,690.76 530.62,691.03 553.00,691.54 C589.28,692.35 605.72,690.79 607.42,686.35 C607.71,685.60 607.45,683.88 606.84,682.54 C605.94,680.57 605.20,680.21 602.98,680.65 C601.48,680.95 599.96,680.74 599.60,680.17 C598.63,678.60 600.90,677.67 602.49,678.99 C603.61,679.92 603.86,679.77 603.74,678.26 C603.67,677.21 604.43,674.62 605.43,672.50 C608.83,665.35 609.64,665.52 571.39,665.36 C531.99,665.20 486.16,664.18 480.74,663.35 C478.40,663.00 476.40,663.25 475.48,664.02 C473.53,665.63 374.95,665.72 367.92,664.11 C363.13,663.02 356.38,663.59 354.25,665.26 C353.38,665.94 353.00,669.67 353.00,677.40 C353.00,692.26 353.70,693.36 362.90,692.84 C367.74,692.56 370.40,691.85 372.68,690.23 ZM 477.24 655.25 C476.20,653.74 474.73,650.92 473.98,649.00 C473.23,647.08 471.85,644.15 470.92,642.50 C461.87,626.42 437.24,583.52 435.04,580.00 C433.50,577.53 431.12,573.47 429.76,571.00 C428.40,568.53 426.26,564.70 425.00,562.50 C423.74,560.30 421.58,556.47 420.19,554.00 C418.80,551.53 414.97,545.00 411.68,539.50 C408.39,534.00 404.34,527.03 402.69,524.00 C401.04,520.97 398.15,516.14 396.25,513.25 C393.37,508.85 392.44,508.10 390.51,508.59 C387.36,509.38 380.63,512.87 373.73,517.30 C370.56,519.33 367.75,521.00 367.49,521.00 C367.23,521.00 363.75,523.09 359.76,525.65 C355.77,528.21 351.03,530.93 349.23,531.68 C344.73,533.56 344.27,531.93 346.89,523.30 C351.16,509.18 355.71,493.14 359.17,480.00 C360.25,475.88 361.56,471.04 362.07,469.25 C362.58,467.46 363.42,464.54 363.93,462.75 C364.44,460.96 365.75,456.12 366.84,452.00 C367.93,447.88 369.35,443.03 370.01,441.24 C372.03,435.73 372.89,435.78 400.00,443.13 C404.12,444.24 409.30,445.59 411.50,446.12 C420.19,448.22 424.69,449.43 433.25,451.96 C435.04,452.49 441.90,454.29 448.50,455.96 C465.20,460.20 468.11,461.18 467.70,462.42 C467.35,463.50 457.11,470.84 455.81,470.95 C455.43,470.98 452.28,472.77 448.81,474.93 C445.34,477.10 438.67,480.81 434.00,483.18 C427.05,486.71 425.45,487.96 425.21,490.03 C425.00,491.76 427.91,497.68 434.46,508.88 C439.71,517.86 445.30,527.52 446.87,530.35 C451.05,537.88 460.44,554.11 466.91,565.00 C470.01,570.22 473.20,575.85 473.98,577.50 C476.06,581.85 478.07,584.00 480.06,584.00 C481.78,584.00 483.42,581.70 489.32,571.00 C490.98,567.97 494.74,561.77 497.67,557.22 C500.60,552.66 503.00,548.79 503.00,548.63 C503.00,548.46 508.24,539.37 514.65,528.41 C521.06,517.46 527.53,506.25 529.03,503.50 C530.53,500.75 532.79,496.67 534.06,494.43 C535.32,492.19 536.10,489.70 535.79,488.89 C535.48,488.08 531.50,485.19 526.95,482.46 C522.40,479.73 516.62,476.26 514.09,474.74 C511.57,473.22 506.10,470.22 501.94,468.08 C497.79,465.93 493.82,463.49 493.13,462.66 C491.41,460.59 493.56,459.53 504.69,456.95 C509.54,455.83 515.53,454.27 518.00,453.48 C524.50,451.41 535.43,448.43 543.50,446.52 C547.35,445.61 551.85,444.47 553.50,443.99 C555.15,443.51 558.08,442.68 560.00,442.16 C561.92,441.64 567.78,440.04 573.00,438.61 C578.22,437.18 583.89,436.00 585.58,436.00 C589.50,436.00 590.40,437.69 593.93,451.75 C594.52,454.09 595.51,457.91 596.14,460.25 C596.76,462.59 597.66,465.96 598.14,467.75 C601.04,478.66 608.08,504.08 610.11,511.00 C612.91,520.55 613.83,524.12 614.42,527.75 C614.89,530.64 614.69,531.00 612.62,531.00 C611.34,531.00 604.26,527.34 596.90,522.87 C578.04,511.42 569.44,506.90 567.75,507.54 C566.51,508.02 563.81,512.23 555.99,525.86 C554.31,528.79 544.41,545.60 541.89,549.81 C541.01,551.29 539.32,554.19 538.14,556.25 C536.96,558.31 535.15,561.46 534.11,563.25 C530.78,568.98 509.43,606.26 505.40,613.38 C503.25,617.17 500.64,621.67 499.60,623.38 C498.55,625.10 496.49,628.75 495.01,631.50 C484.26,651.52 480.57,658.00 479.90,658.00 C479.48,658.00 478.28,656.76 477.24,655.25 ZM 483.99 640.04 C484.57,637.88 486.12,635.26 487.43,634.23 C491.22,631.25 493.99,625.88 494.00,621.49 C494.00,618.06 494.40,617.31 496.82,616.24 C499.08,615.24 500.08,613.65 501.83,608.25 C503.04,604.54 504.02,600.70 504.01,599.73 C504.01,598.75 505.04,597.56 506.31,597.07 C507.57,596.59 510.04,595.00 511.78,593.53 C514.28,591.43 515.09,589.81 515.62,585.84 C516.16,581.76 516.98,580.17 520.05,577.33 C522.44,575.12 524.43,571.99 525.48,568.78 C526.39,566.00 528.46,562.07 530.08,560.05 C532.02,557.64 533.50,554.12 534.41,549.76 C536.10,541.70 536.33,541.31 540.32,539.64 C542.84,538.58 543.78,537.34 544.86,533.65 C545.61,531.09 547.29,527.98 548.59,526.75 C549.90,525.51 550.97,523.95 550.98,523.28 C550.99,522.62 552.28,520.59 553.85,518.78 C557.38,514.72 559.00,511.71 559.00,509.21 C559.00,506.41 564.79,502.00 568.44,502.02 C573.80,502.04 579.93,504.48 582.96,507.79 C586.66,511.85 590.62,512.13 592.02,508.44 C592.56,507.03 593.45,506.16 594.00,506.50 C595.52,507.44 595.20,510.00 593.56,510.00 C591.14,510.00 590.80,511.85 592.90,513.65 C596.24,516.50 604.27,519.17 605.19,517.73 C606.73,515.30 605.95,511.31 603.02,506.70 C600.70,503.03 599.94,500.49 599.54,495.08 C599.26,491.27 597.90,484.77 596.52,480.65 C595.13,476.52 593.98,471.88 593.97,470.32 C593.95,468.77 593.06,465.70 592.00,463.50 C590.94,461.30 590.05,458.71 590.03,457.74 C590.02,456.77 589.61,455.19 589.12,454.24 C588.64,453.28 587.68,450.70 587.00,448.50 C586.31,446.30 585.30,443.94 584.75,443.25 C583.40,441.56 579.53,441.68 575.97,443.52 C574.35,444.35 570.89,445.31 568.27,445.65 C565.65,446.00 562.89,446.76 562.14,447.35 C561.40,447.94 558.92,448.51 556.64,448.62 C550.06,448.93 543.12,450.54 534.50,453.77 C522.84,458.13 522.64,458.22 520.93,460.33 C519.64,461.93 518.99,462.07 517.25,461.13 C514.31,459.56 506.77,459.71 504.48,461.39 C502.86,462.57 502.78,463.03 503.91,464.39 C504.64,465.27 507.10,466.52 509.37,467.16 C511.64,467.81 514.62,469.32 516.00,470.53 C517.38,471.73 519.96,473.46 521.75,474.36 C523.54,475.26 526.31,476.67 527.90,477.50 C529.50,478.33 531.42,479.00 532.16,479.00 C534.08,479.00 538.94,483.72 540.06,486.66 C541.70,490.97 541.11,496.15 538.45,500.68 C537.05,503.07 536.17,505.46 536.49,505.99 C537.06,506.91 533.48,511.50 527.94,516.97 C526.54,518.36 524.33,521.75 523.04,524.50 C521.75,527.25 519.44,530.69 517.91,532.14 C515.92,534.02 514.76,536.55 513.84,541.00 C512.83,545.91 512.08,547.40 510.28,548.08 C509.02,548.56 508.00,549.62 508.00,550.44 C508.00,551.26 506.65,553.47 505.00,555.35 C503.35,557.23 502.00,559.17 502.00,559.67 C502.00,560.16 499.73,563.86 496.95,567.87 C494.18,571.89 491.02,577.54 489.94,580.43 C486.94,588.44 481.35,590.58 474.77,586.23 C471.74,584.23 470.02,581.70 466.31,573.80 C463.74,568.34 460.88,563.47 459.95,562.97 C459.02,562.48 458.01,560.82 457.70,559.29 C456.99,555.75 453.51,552.00 450.96,552.00 C449.60,552.00 449.00,551.32 449.00,549.75 C448.99,548.51 448.09,546.03 447.00,544.23 C445.90,542.43 445.00,540.02 445.00,538.88 C445.00,537.73 443.35,535.16 441.33,533.15 C438.76,530.60 436.99,527.44 435.47,522.65 C434.09,518.32 432.33,515.01 430.68,513.65 C429.25,512.47 427.19,509.20 426.11,506.39 C425.02,503.57 423.21,499.75 422.07,497.89 C418.82,492.55 419.36,490.05 425.00,484.50 C430.05,479.52 431.24,476.41 428.50,475.36 C424.98,474.01 427.26,472.49 433.11,472.29 C439.61,472.07 447.71,468.92 448.75,466.22 C449.50,464.25 445.55,461.00 442.41,461.00 C441.11,461.00 437.67,459.92 434.77,458.61 C424.63,454.01 421.65,452.87 417.59,452.04 C415.34,451.58 408.10,449.77 401.50,448.01 C386.87,444.12 377.78,442.49 375.53,443.35 C374.39,443.79 373.94,444.90 374.15,446.84 C374.35,448.78 373.58,450.71 371.70,452.94 C369.40,455.68 368.98,457.05 369.13,461.41 C369.23,464.68 368.72,467.53 367.74,469.06 C366.88,470.40 365.69,474.42 365.10,478.00 C363.69,486.55 361.38,494.78 359.64,497.42 C358.17,499.66 356.83,506.00 356.49,512.25 C356.21,517.39 357.83,518.48 362.64,516.41 C371.82,512.47 381.19,507.81 384.60,505.50 C387.37,503.62 389.58,503.00 393.53,503.00 C399.24,503.00 400.00,503.72 400.00,509.15 C400.00,511.38 401.03,513.07 404.00,515.74 C406.20,517.71 408.00,520.05 408.00,520.93 C408.00,521.81 409.10,523.35 410.45,524.37 C412.20,525.68 413.09,527.55 413.53,530.86 C414.43,537.65 415.91,540.83 419.41,543.50 C421.65,545.21 423.01,547.54 424.30,551.87 C425.84,557.06 426.58,558.12 429.77,559.69 C432.57,561.06 433.62,562.30 434.11,564.78 C434.47,566.59 436.50,570.58 438.63,573.66 C440.76,576.73 443.17,580.43 444.00,581.87 C444.83,583.32 445.84,584.65 446.25,584.83 C446.66,585.02 447.00,586.14 447.01,587.33 C447.01,588.53 448.12,591.30 449.47,593.50 C450.83,595.70 451.95,598.32 451.97,599.33 C451.99,600.33 453.42,602.57 455.15,604.30 C457.42,606.58 458.43,608.66 458.79,611.81 C459.16,615.16 459.83,616.42 461.64,617.25 C462.94,617.84 464.05,618.81 464.12,619.41 C464.18,620.01 464.34,620.95 464.46,621.50 C464.59,622.05 464.76,623.31 464.85,624.30 C464.93,625.28 466.09,627.18 467.42,628.51 C468.75,629.84 471.25,633.75 472.99,637.21 C474.72,640.67 476.85,644.05 477.71,644.71 C480.10,646.56 482.77,644.57 483.99,640.04 ZM 457.50 464.00 C457.50,461.83 453.60,462.13 453.17,464.33 C452.90,465.75 453.35,466.09 455.16,465.83 C456.45,465.65 457.50,464.83 457.50,464.00 ZM 502.37 569.52 C501.47,567.18 503.77,565.01 505.03,567.01 C505.54,567.83 505.83,568.92 505.67,569.44 C505.13,571.14 503.01,571.19 502.37,569.52 ZM 417.00 525.50 C415.81,522.37 416.36,521.08 418.81,521.26 C420.08,521.36 420.56,522.23 420.54,524.36 C420.49,528.22 418.30,528.92 417.00,525.50 ZM 408.50 480.00 C408.84,479.45 409.54,479.00 410.06,479.00 C410.58,479.00 411.00,479.45 411.00,480.00 C411.00,480.55 410.30,481.00 409.44,481.00 C408.58,481.00 408.16,480.55 408.50,480.00 ZM 532.36 474.91 C528.40,473.76 527.45,471.50 530.14,469.61 C531.72,468.51 532.88,468.41 535.18,469.21 C538.67,470.43 539.72,472.42 537.99,474.51 C536.61,476.17 536.70,476.17 532.36,474.91 Z" fill="rgba(68,133,195,1)"/>
</g>
</svg>